# This file uses centimeters as units for non-parametric coordinates.

mtllib SM_Rocket.mtl
g default
v 0.120785 -0.157673 -0.101350
v 0.027380 -0.157673 -0.155278
v -0.078837 -0.157673 -0.136549
v -0.148165 -0.157673 -0.053928
v -0.148165 -0.157673 0.053927
v -0.078837 -0.157673 0.136549
v 0.027380 -0.157673 0.155278
v 0.120785 -0.157673 0.101350
v 0.157673 -0.157673 0.000000
v 0.000000 -0.157673 0.000000
v 0.000000 1.433750 0.000000
v 0.120785 0.889150 -0.101350
v 0.027380 0.889150 -0.155278
v -0.078837 0.889150 -0.136549
v -0.148165 0.889150 -0.053928
v -0.148165 0.889150 0.053927
v -0.078837 0.889150 0.136549
v 0.027380 0.889150 0.155278
v 0.120785 0.889150 0.101350
v 0.157673 0.889150 0.000000
v 0.160198 0.889150 -0.134422
v 0.036314 0.889150 -0.205946
v 0.036314 0.951908 -0.205946
v 0.160198 0.951908 -0.134422
v -0.104562 0.889150 -0.181106
v -0.104562 0.951908 -0.181106
v -0.196512 0.889150 -0.071524
v -0.196512 0.951908 -0.071524
v -0.196512 0.889150 0.071524
v -0.196512 0.951908 0.071524
v -0.104562 0.889150 0.181106
v -0.104562 0.951908 0.181106
v 0.036314 0.889150 0.205946
v 0.036314 0.951908 0.205946
v 0.160198 0.889150 0.134422
v 0.160198 0.951908 0.134422
v 0.209123 0.889150 0.000000
v 0.209123 0.951908 0.000000
v 0.120785 -0.082461 -0.101350
v 0.027380 -0.082461 -0.155278
v -0.078837 -0.082461 -0.136549
v -0.148165 -0.082461 -0.053928
v -0.148165 -0.082461 0.053927
v -0.078837 -0.082461 0.136549
v 0.027380 -0.082461 0.155278
v 0.120785 -0.082461 0.101350
v 0.157673 -0.082461 0.000000
v 0.120785 0.093214 -0.101350
v 0.157673 0.093214 0.000000
v 0.120785 0.093214 0.101350
v 0.027380 0.093214 0.155278
v -0.078837 0.093214 0.136549
v -0.148165 0.093214 0.053927
v -0.148165 0.093214 -0.053928
v -0.078837 0.093214 -0.136549
v 0.027380 0.093214 -0.155278
v -0.148903 -0.082461 -0.195342
v -0.218231 -0.082461 -0.112720
v -0.094719 -0.082461 0.226625
v 0.011497 -0.082461 0.245353
v 0.243622 -0.082461 -0.031283
v 0.206734 -0.082461 -0.132633
vt 0.694493 0.564288
vt 0.776713 0.564288
vt 0.776713 0.600359
vt 0.694493 0.600359
vt 0.839697 0.564288
vt 0.839697 0.600359
vt 0.735603 0.877307
vt 0.631509 0.564288
vt 0.631509 0.600359
vt 0.717634 0.001845
vt 0.794896 0.001845
vt 0.794896 0.037917
vt 0.717634 0.037917
vt 0.872157 0.001845
vt 0.872157 0.037917
vt 0.794896 0.314864
vt 0.676524 0.001845
vt 0.676524 0.037917
vt 0.913267 0.001845
vt 0.913267 0.037917
vt 0.430381 0.045075
vt 0.492373 0.045075
vt 0.492373 0.146047
vt 0.430381 0.146047
vt 0.430381 0.001845
vt 0.492373 0.001845
vt 0.539861 0.045075
vt 0.539861 0.146047
vt 0.492373 0.603526
vt 0.430381 0.603526
vt 0.396589 0.045075
vt 0.539861 0.001845
vt 0.382893 0.001845
vt 0.382893 0.045075
vt 0.591633 0.045075
vt 0.539861 0.603526
vt 0.382893 0.146047
vt 0.382893 0.603526
vt 0.349100 0.045075
vt 0.084760 0.045075
vt 0.143013 0.045075
vt 0.143013 0.146047
vt 0.084760 0.146047
vt 0.084760 0.001845
vt 0.143013 0.001845
vt 0.143013 0.603526
vt 0.084760 0.603526
vt 0.053765 0.045075
vt 0.053765 0.146047
vt 0.201266 0.001845
vt 0.201266 0.045075
vt 0.053765 0.001845
vt 0.201266 0.146047
vt 0.201266 0.603526
vt 0.053765 0.603526
vt 0.001992 0.045075
vt 0.232262 0.001845
vt 0.232262 0.045075
vt 0.160994 0.045075
vt 0.219247 0.045075
vt 0.232262 0.146047
vt 0.232262 0.603526
vt 0.152893 0.607518
vt 0.206580 0.638514
vt 0.137156 0.696767
vt 0.227782 0.696767
vt 0.091844 0.618282
vt 0.206580 0.755020
vt 0.051996 0.665771
vt 0.152893 0.786016
vt 0.051996 0.727762
vt 0.091844 0.775251
vt 0.416289 0.667636
vt 0.362603 0.636640
vt 0.367738 0.607518
vt 0.438943 0.648628
vt 0.301553 0.647405
vt 0.286767 0.621795
vt 0.437492 0.725889
vt 0.467064 0.725889
vt 0.261706 0.694893
vt 0.233918 0.684779
vt 0.416289 0.784142
vt 0.438943 0.803150
vt 0.261706 0.756885
vt 0.233917 0.766999
vt 0.362603 0.815138
vt 0.367738 0.844260
vt 0.301553 0.804373
vt 0.286767 0.829983
vt 0.195345 0.823799
vt 0.155498 0.871287
vt 0.115226 0.837495
vt 0.155074 0.790007
vt 0.280887 0.909302
vt 0.291652 0.848252
vt 0.343424 0.857381
vt 0.332660 0.918431
vt 0.224131 0.924485
vt 0.202929 0.866232
vt 0.252330 0.848252
vt 0.273532 0.906505
vt 0.926804 0.631875
vt 0.845833 0.631875
vt 0.845833 0.595803
vt 0.926804 0.595803
vt 0.905931 0.318856
vt 0.998008 0.595803
vt 0.473199 0.607518
vt 0.554170 0.607518
vt 0.554170 0.643589
vt 0.473199 0.643589
vt 0.533298 0.920537
vt 0.625374 0.643589
vt 0.341281 0.560297
vt 0.280231 0.560297
vt 0.280231 0.459324
vt 0.341281 0.459324
vt 0.341281 0.603526
vt 0.280231 0.603526
vt 0.239959 0.560297
vt 0.280231 0.001845
vt 0.341281 0.001845
vt 0.598566 0.001845
vt 0.659616 0.001845
vt 0.668745 0.102818
vt 0.607695 0.102818
vt 0.668745 0.560297
vt 0.607695 0.560297
vt 0.351049 0.909302
vt 0.351049 0.848252
vt 0.394279 0.848252
vt 0.394279 0.909302
vt 0.001992 0.890979
vt 0.001992 0.790007
vt 0.051393 0.890979
vt 0.058707 0.890979
vt 0.058707 0.790007
vt 0.108107 0.790007
vn 0.500000 0.000000 -0.866025
vn 0.500000 0.000000 -0.866025
vn 0.500000 0.000000 -0.866025
vn 0.500000 0.000000 -0.866025
vn -0.173648 0.000000 -0.984808
vn -0.173648 0.000000 -0.984808
vn -0.173648 0.000000 -0.984808
vn -0.173648 0.000000 -0.984808
vn -0.766044 0.000000 -0.642788
vn -0.766044 0.000000 -0.642788
vn -0.766044 0.000000 -0.642788
vn -0.766044 0.000000 -0.642788
vn -1.000000 0.000000 0.000000
vn -1.000000 0.000000 0.000000
vn -1.000000 0.000000 0.000000
vn -1.000000 0.000000 0.000000
vn -0.766044 0.000000 0.642788
vn -0.766044 0.000000 0.642788
vn -0.766044 0.000000 0.642788
vn -0.766044 0.000000 0.642788
vn -0.173649 0.000000 0.984808
vn -0.173649 0.000000 0.984808
vn -0.173649 0.000000 0.984808
vn -0.173649 0.000000 0.984808
vn 0.500000 0.000000 0.866025
vn 0.500000 0.000000 0.866025
vn 0.500000 0.000000 0.866025
vn 0.500000 0.000000 0.866025
vn 0.939693 0.000000 0.342020
vn 0.939693 0.000000 0.342020
vn 0.939693 0.000000 0.342020
vn 0.939693 0.000000 0.342020
vn 0.939693 0.000000 -0.342020
vn 0.939693 0.000000 -0.342020
vn 0.939693 0.000000 -0.342020
vn 0.939693 0.000000 -0.342020
vn 0.000000 -1.000000 -0.000000
vn 0.000000 -1.000000 -0.000000
vn 0.000000 -1.000000 -0.000000
vn 0.000000 -1.000000 0.000000
vn 0.000000 -1.000000 0.000000
vn 0.000000 -1.000000 -0.000000
vn 0.000000 -1.000000 -0.000000
vn 0.000000 -1.000000 0.000000
vn 0.000000 -1.000000 0.000000
vn 0.000000 -1.000000 0.000000
vn 0.000000 1.000000 0.000000
vn 0.702716 0.398128 -0.589648
vn 0.159293 0.398128 -0.903394
vn -0.458665 0.398128 -0.794431
vn -0.862008 0.398128 -0.313745
vn -0.862008 0.398128 0.313745
vn -0.458665 0.398128 0.794431
vn 0.159292 0.398128 0.903394
vn 0.702716 0.398128 0.589648
vn 0.917330 0.398128 -0.000000
vn 0.500000 0.000000 -0.866025
vn 0.500000 0.000000 -0.866025
vn 0.500000 0.000000 -0.866025
vn 0.500000 0.000000 -0.866025
vn -0.173649 0.000000 -0.984808
vn -0.173649 0.000000 -0.984808
vn -0.173648 0.000000 -0.984808
vn -0.173648 0.000000 -0.984808
vn -0.679467 0.461806 -0.570141
vn -0.679467 0.461806 -0.570141
vn -0.679467 0.461806 -0.570141
vn -0.679467 0.461806 -0.570141
vn -1.000000 0.000000 0.000000
vn -1.000000 0.000000 0.000000
vn -1.000000 0.000000 0.000000
vn -1.000000 0.000000 0.000000
vn -0.766044 0.000000 0.642788
vn -0.766044 0.000000 0.642788
vn -0.766044 0.000000 0.642788
vn -0.766044 0.000000 0.642788
vn -0.154023 0.461806 0.873506
vn -0.154023 0.461806 0.873506
vn -0.154023 0.461806 0.873506
vn -0.154023 0.461806 0.873506
vn 0.500000 0.000000 0.866025
vn 0.500000 0.000000 0.866025
vn 0.500000 0.000000 0.866025
vn 0.500000 0.000000 0.866025
vn 0.939692 0.000000 0.342020
vn 0.939692 0.000000 0.342020
vn 0.939692 0.000000 0.342021
vn 0.939692 0.000000 0.342021
vn 0.833490 0.461806 -0.303365
vn 0.833490 0.461806 -0.303365
vn 0.833490 0.461806 -0.303365
vn 0.833490 0.461806 -0.303365
vn 0.000000 -1.000000 0.000000
vn 0.000000 -1.000000 0.000001
vn 0.000000 -1.000000 0.000001
vn 0.000000 -1.000000 0.000000
vn 0.000000 -1.000000 0.000000
vn 0.000000 -1.000000 0.000000
vn 0.000000 -1.000000 -0.000000
vn 0.000000 -1.000000 -0.000000
vn 0.000000 -1.000000 -0.000000
vn 0.000000 -1.000000 -0.000000
vn 0.000000 -1.000000 0.000000
vn 0.000000 -1.000000 -0.000000
vn 0.000000 -1.000000 0.000000
vn 0.000000 -1.000000 0.000000
vn 0.000000 -1.000000 -0.000000
vn 0.000000 -1.000000 -0.000000
vn 0.000000 -1.000000 0.000000
vn 0.000000 -1.000000 0.000000
vn 0.500000 0.000000 -0.866025
vn 0.500000 0.000000 -0.866025
vn -0.173649 0.000000 -0.984808
vn -0.173649 0.000000 -0.984808
vn -0.766044 0.000000 -0.642788
vn -0.766044 0.000000 -0.642788
vn -0.766044 0.000000 -0.642788
vn -0.766044 0.000000 -0.642788
vn -1.000000 0.000000 0.000000
vn -1.000000 0.000000 0.000000
vn -0.766044 0.000000 0.642788
vn -0.766044 0.000000 0.642788
vn -0.173648 0.000000 0.984808
vn -0.173648 0.000000 0.984808
vn -0.173648 0.000000 0.984808
vn -0.173648 0.000000 0.984808
vn 0.500000 0.000000 0.866025
vn 0.500000 0.000000 0.866025
vn 0.939692 0.000000 0.342021
vn 0.939692 0.000000 0.342021
vn 0.939693 0.000000 -0.342020
vn 0.939693 0.000000 -0.342020
vn 0.939693 0.000000 -0.342020
vn 0.939693 0.000000 -0.342020
vn 0.939693 0.000000 -0.342020
vn 0.939693 0.000000 -0.342020
vn 0.939693 0.000000 -0.342020
vn 0.939693 0.000000 -0.342020
vn 0.939692 0.000000 0.342021
vn 0.939692 0.000000 0.342021
vn 0.500000 0.000000 0.866025
vn 0.500000 0.000000 0.866025
vn -0.173648 0.000000 0.984808
vn -0.173648 0.000000 0.984808
vn -0.173648 0.000000 0.984808
vn -0.173648 0.000000 0.984808
vn -0.766044 0.000000 0.642788
vn -0.766044 0.000000 0.642788
vn -1.000000 0.000000 0.000000
vn -1.000000 0.000000 0.000000
vn -0.766044 0.000000 -0.642788
vn -0.766044 0.000000 -0.642788
vn -0.766044 0.000000 -0.642788
vn -0.766044 0.000000 -0.642788
vn -0.173648 0.000000 -0.984808
vn -0.173648 0.000000 -0.984808
vn 0.500000 0.000000 -0.866025
vn 0.500000 0.000000 -0.866025
vn 0.000000 -1.000000 0.000000
vn 0.000000 -1.000000 0.000000
vn 0.000000 -1.000000 0.000000
vn 0.000000 -1.000000 0.000000
vn -0.642787 0.000000 0.766045
vn -0.642787 0.000000 0.766045
vn -0.642787 0.000000 0.766045
vn 0.642787 0.000000 -0.766045
vn 0.642787 0.000000 -0.766045
vn 0.642787 0.000000 -0.766045
vn 0.000000 -1.000000 -0.000000
vn 0.000000 -1.000000 -0.000000
vn 0.000000 -1.000000 -0.000000
vn 0.000000 -1.000000 -0.000000
vn 0.984808 0.000000 0.173648
vn 0.984808 0.000000 0.173648
vn 0.984808 0.000000 0.173648
vn -0.984808 0.000000 -0.173649
vn -0.984808 0.000000 -0.173649
vn -0.984808 0.000000 -0.173649
vn 0.000000 -1.000000 -0.000000
vn 0.000000 -1.000000 -0.000000
vn 0.000000 -1.000000 -0.000000
vn 0.000000 -1.000000 -0.000000
vn -0.342020 0.000000 -0.939693
vn -0.342020 0.000000 -0.939693
vn -0.342020 0.000000 -0.939693
vn 0.342020 0.000000 0.939693
vn 0.342020 0.000000 0.939693
vn 0.342020 0.000000 0.939693
s off
g pCylinder32
usemtl initialShadingGroup
f 21/14/1 22/19/2 23/20/3 24/15/4
f 22/103/5 25/104/6 26/105/7 23/106/8
f 25/8/9 27/1/10 28/4/11 26/9/12
f 27/1/13 29/2/14 30/3/15 28/4/16
f 29/2/17 31/5/18 32/6/19 30/3/20
f 31/109/21 33/110/22 34/111/23 32/112/24
f 33/17/25 35/10/26 36/13/27 34/18/28
f 35/10/29 37/11/30 38/12/31 36/13/32
f 37/11/33 21/14/34 24/15/35 38/12/36
s 1
f 2/63/37 1/64/38 10/65/39
f 3/67/40 2/63/37 10/65/39
f 4/69/41 3/67/40 10/65/39
f 5/71/42 4/69/41 10/65/39
f 6/72/43 5/71/42 10/65/39
f 7/70/44 6/72/43 10/65/39
f 8/68/45 7/70/44 10/65/39
f 9/66/46 8/68/45 10/65/39
f 1/64/38 9/66/46 10/65/39
s 2
f 11/107/47 24/108/48 23/106/49
f 11/107/47 23/106/49 26/105/50
f 11/7/47 26/9/50 28/4/51
f 11/7/47 28/4/51 30/3/52
f 11/7/47 30/3/52 32/6/53
f 11/113/47 32/112/53 34/111/54
f 11/113/47 34/111/54 36/114/55
f 11/16/47 36/13/55 38/12/56
f 11/16/47 38/12/56 24/15/48
s 3
f 39/51/57 40/58/58 56/61/59 48/53/60
s 4
f 40/115/61 41/116/62 55/117/63 56/118/64
s off
f 57/39/65 58/31/66 54/24/67 55/37/68
s 5
f 42/21/69 43/22/70 53/23/71 54/24/72
s 6
f 43/22/73 44/27/74 52/28/75 53/23/76
s off
f 59/124/77 60/125/78 51/126/79 52/127/80
s 7
f 45/48/81 46/40/82 50/43/83 51/49/84
s 8
f 46/40/85 47/41/86 49/42/87 50/43/88
s off
f 61/59/89 62/60/90 48/53/91 49/42/92
s 9
f 12/73/93 13/74/94 22/75/95 21/76/96
f 13/74/94 14/77/97 25/78/98 22/75/95
f 14/77/97 15/81/99 27/82/100 25/78/98
f 15/81/99 16/85/101 29/86/102 27/82/100
f 16/85/101 17/89/103 31/90/104 29/86/102
f 17/89/103 18/87/105 33/88/106 31/90/104
f 18/87/105 19/83/107 35/84/108 33/88/106
f 19/83/107 20/79/109 37/80/110 35/84/108
f 20/79/109 12/73/93 21/76/96 37/80/110
s 3
f 1/50/111 2/57/112 40/58/58 39/51/57
s 4
f 2/119/113 3/120/114 41/116/62 40/115/61
s off
f 3/33/115 4/25/116 42/21/117 41/34/118
s 5
f 4/25/119 5/26/120 43/22/70 42/21/69
s 6
f 5/26/121 6/32/122 44/27/74 43/22/73
s off
f 6/130/123 7/131/124 45/132/125 44/133/126
s 7
f 7/52/127 8/44/128 46/40/82 45/48/81
s 8
f 8/44/129 9/45/130 47/41/86 46/40/85
s off
f 9/45/131 1/50/132 39/51/133 47/41/134
f 49/42/135 48/53/136 12/54/137 20/46/138
s 8
f 50/43/88 49/42/87 20/46/139 19/47/140
s 7
f 51/49/84 50/43/83 19/47/141 18/55/142
s off
f 52/127/143 51/126/144 18/128/145 17/129/146
s 6
f 53/23/76 52/28/75 17/36/147 16/29/148
s 5
f 54/24/72 53/23/71 16/29/149 15/30/150
s off
f 55/37/151 54/24/152 15/30/153 14/38/154
s 4
f 56/118/64 55/117/63 14/122/155 13/123/156
s 3
f 48/53/60 56/61/59 13/62/157 12/54/158
s off
f 41/91/159 42/92/160 58/93/161 57/94/162
f 42/21/163 54/24/164 58/31/165
f 55/117/166 41/116/167 57/121/168
f 44/95/169 45/96/170 60/97/171 59/98/172
f 45/48/173 51/49/174 60/56/175
f 52/28/176 44/27/177 59/35/178
f 47/99/179 39/100/180 62/101/181 61/102/182
f 39/134/183 48/135/184 62/136/185
f 49/137/186 47/138/187 61/139/188
