# This file uses centimeters as units for non-parametric coordinates.

mtllib Tronc.mtl
g default
v 5.236275 0.805833 -0.261831
v 5.020128 0.685482 -0.498032
v 4.580733 0.498032 -0.685482
v 4.463578 0.261831 -0.805832
v 4.496357 0.000000 -0.847302
v 4.496357 -0.261831 -0.805832
v 4.225026 -0.498032 -0.685482
v 4.121840 -0.685482 -0.498031
v 4.121840 -0.805832 -0.261831
v 3.868764 -0.847302 0.000000
v 4.457047 -0.805832 0.261831
v 4.457047 -0.685482 0.498032
v 4.311309 -0.498031 0.685482
v 4.311309 -0.261831 0.805832
v 3.544222 0.000000 0.847302
v 3.681371 0.261831 0.805832
v 4.580733 0.498031 0.685482
v 5.020128 0.685482 0.498032
v 5.236275 0.805832 0.261831
v 5.236275 0.847302 0.000000
v 5.236275 0.951057 -0.309017
v 5.020128 0.809018 -0.587786
v 4.580733 0.587786 -0.809017
v 4.463578 0.309017 -0.951057
v 4.496357 0.000000 -1.000000
v 4.496357 -0.309017 -0.951057
v 4.225026 -0.587785 -0.809017
v 4.121840 -0.809017 -0.587785
v 4.121840 -0.951057 -0.309017
v 3.868764 -1.000000 0.000000
v 4.457047 -0.951057 0.309017
v 4.457047 -0.809017 0.587785
v 4.311309 -0.587785 0.809017
v 4.311309 -0.309017 0.951057
v 3.544222 0.000000 1.000000
v 3.681371 0.309017 0.951057
v 4.580733 0.587785 0.809017
v 5.020128 0.809017 0.587785
v 5.236275 0.951057 0.309017
v 5.236275 1.000000 0.000000
v -4.195800 0.951057 -0.309017
v -4.195800 0.809018 -0.587786
v -4.100877 0.587786 -0.809017
v -3.868764 0.309017 -0.951057
v -4.034230 0.000000 -1.000000
v -4.034230 -0.309017 -0.951057
v -4.307999 -0.587785 -0.809017
v -4.307998 -0.809017 -0.587785
v -4.307998 -0.951057 -0.309017
v -3.868764 -1.000000 0.000000
v -3.868764 -0.951057 0.309017
v -4.142138 -0.809017 0.587785
v -4.142138 -0.587785 0.809017
v -4.142138 -0.309017 0.951057
v -3.868764 0.000000 1.000000
v -3.868764 0.309017 0.951057
v -4.100877 0.587785 0.809017
v -4.195800 0.809017 0.587785
v -4.311708 0.951057 0.309017
v -4.311708 1.000000 0.000000
v -4.195800 0.805832 -0.261831
v -4.195800 0.685482 -0.498032
v -4.100877 0.498032 -0.685482
v -3.868764 0.261831 -0.805832
v -4.034230 0.000000 -0.847302
v -4.034230 -0.261831 -0.805832
v -4.307999 -0.498032 -0.685482
v -4.307998 -0.685482 -0.498031
v -4.307998 -0.805832 -0.261831
v -3.868764 -0.847302 0.000000
v -3.868764 -0.805832 0.261831
v -4.142138 -0.685482 0.498032
v -4.142138 -0.498031 0.685482
v -4.142138 -0.261831 0.805832
v -3.868764 0.000000 0.847302
v -3.868764 0.261831 0.805832
v -4.100877 0.498031 0.685482
v -4.195800 0.685482 0.498032
v -4.311708 0.805832 0.261831
v -4.311708 0.847302 0.000000
v 3.549894 0.805832 -0.261831
v 3.549894 0.685482 -0.498032
v 3.549894 0.000000 0.000000
v 3.549894 0.498032 -0.685482
v 3.549894 0.261831 -0.805832
v 3.549894 0.000000 -0.847302
v 3.549894 -0.261831 -0.805832
v 3.549894 -0.498031 -0.685482
v 3.549894 -0.685481 -0.498031
v 3.549894 -0.805832 -0.261831
v 3.549894 -0.847302 0.000000
v 3.549894 -0.805832 0.261831
v 3.549894 -0.685482 0.498032
v 3.549894 -0.498031 0.685482
v 3.549894 -0.261831 0.805832
v 3.549894 0.000000 0.847302
v 3.549894 0.261831 0.805832
v 3.549894 0.498031 0.685482
v 3.549894 0.685481 0.498032
v 3.549894 0.805832 0.261831
v 3.549894 0.847302 0.000000
v -3.549894 0.805832 -0.261831
v -3.549894 0.685482 -0.498032
v -3.549894 -0.000000 0.000000
v -3.549894 0.498032 -0.685482
v -3.549894 0.261831 -0.805832
v -3.549894 0.000000 -0.847302
v -3.549894 -0.261831 -0.805832
v -3.549894 -0.498032 -0.685482
v -3.549894 -0.685482 -0.498031
v -3.549894 -0.805832 -0.261831
v -3.549894 -0.847302 0.000000
v -3.549894 -0.805832 0.261831
v -3.549894 -0.685482 0.498032
v -3.549894 -0.498031 0.685482
v -3.549894 -0.261831 0.805832
v -3.549894 0.000000 0.847302
v -3.549894 0.261831 0.805832
v -3.549894 0.498031 0.685482
v -3.549894 0.685482 0.498032
v -3.549894 0.805832 0.261831
v -3.549894 0.847302 0.000000
vt 0.547821 0.487220
vt 0.592501 0.487900
vt 0.594182 0.509817
vt 0.549200 0.507992
vt 0.641137 0.490555
vt 0.640625 0.517158
vt 0.688621 0.495134
vt 0.687026 0.520406
vt 0.735029 0.498301
vt 0.733171 0.521249
vt 0.780286 0.501240
vt 0.779572 0.522271
vt 0.827695 0.503079
vt 0.826579 0.527387
vt 0.875031 0.505800
vt 0.874291 0.529690
vt 0.920497 0.508085
vt 0.922107 0.530047
vt 0.964001 0.508187
vt 0.037804 0.551456
vt 0.087377 0.519903
vt 0.085233 0.540004
vt 0.130816 0.517583
vt 0.130533 0.539620
vt 0.176989 0.517132
vt 0.176691 0.541276
vt 0.220887 0.521827
vt 0.223428 0.541043
vt 0.272405 0.527898
vt 0.272315 0.555733
vt 0.318144 0.522679
vt 0.321236 0.550377
vt 0.370322 0.506256
vt 0.370368 0.527523
vt 0.415713 0.496834
vt 0.416280 0.517894
vt 0.459717 0.490955
vt 0.460907 0.511928
vt 0.503678 0.487233
vt 0.505095 0.509941
vt 0.602960 0.871249
vt 0.556070 0.873528
vt 0.649173 0.867334
vt 0.696146 0.860951
vt 0.743578 0.862631
vt 0.790810 0.861402
vt 0.837471 0.864845
vt 0.883389 0.863378
vt 0.929588 0.862399
vt 0.040406 0.870577
vt 0.088033 0.868426
vt 0.136259 0.871751
vt 0.183307 0.870124
vt 0.230294 0.868515
vt 0.275629 0.862697
vt 0.321837 0.862932
vt 0.367555 0.868921
vt 0.414503 0.872968
vt 0.461638 0.876428
vt 0.508712 0.876428
vt 0.603213 0.893785
vt 0.555976 0.897336
vt 0.649296 0.889899
vt 0.696471 0.886574
vt 0.744132 0.885135
vt 0.790776 0.886426
vt 0.838305 0.886362
vt 0.883437 0.886274
vt 0.927901 0.883233
vt 0.047317 0.894905
vt 0.090540 0.893327
vt 0.137855 0.893134
vt 0.183634 0.892874
vt 0.229484 0.890190
vt 0.275110 0.887786
vt 0.321159 0.887931
vt 0.367745 0.891644
vt 0.414106 0.896129
vt 0.461404 0.898381
vt 0.508321 0.898674
vt 0.233292 0.180818
vt 0.550146 0.421922
vt 0.214721 0.131419
vt 0.247648 0.172662
vt 0.258781 0.160468
vt 0.265601 0.145431
vt 0.267441 0.129022
vt 0.264120 0.112849
vt 0.255964 0.098492
vt 0.243770 0.087360
vt 0.228733 0.080540
vt 0.212324 0.078700
vt 0.196150 0.082021
vt 0.181794 0.090177
vt 0.170662 0.102371
vt 0.163841 0.117408
vt 0.162002 0.133817
vt 0.165323 0.149990
vt 0.173479 0.164347
vt 0.185673 0.175479
vt 0.200710 0.182299
vt 0.113798 0.174709
vt 0.605897 0.919103
vt 0.099041 0.121306
vt 0.652803 0.910978
vt 0.697294 0.899778
vt 0.743033 0.903925
vt 0.788944 0.906234
vt 0.836059 0.915651
vt 0.884651 0.916389
vt 0.933066 0.910879
vt 0.048250 0.907523
vt 0.090299 0.906381
vt 0.136474 0.915868
vt 0.184313 0.916368
vt 0.232171 0.912531
vt 0.276194 0.900649
vt 0.319870 0.900955
vt 0.364055 0.912775
vt 0.411029 0.921618
vt 0.459727 0.928396
vt 0.509393 0.928322
vt 0.129578 0.167535
vt 0.557854 0.923332
vt 0.142369 0.155836
vt 0.150919 0.140757
vt 0.154390 0.123774
vt 0.152444 0.106549
vt 0.145270 0.090769
vt 0.133571 0.077978
vt 0.118491 0.069428
vt 0.101508 0.065957
vt 0.084284 0.067903
vt 0.068503 0.075077
vt 0.055712 0.086776
vt 0.047163 0.101855
vt 0.043691 0.118838
vt 0.045638 0.136063
vt 0.052812 0.151843
vt 0.064511 0.164634
vt 0.079590 0.173184
vt 0.096573 0.176655
vt 0.497127 0.421801
vt 0.217118 0.184139
vt 0.443963 0.429608
vt 0.393306 0.448141
vt 0.349050 0.478729
vt 0.315803 0.517849
vt 0.272433 0.527676
vt 0.229344 0.496772
vt 0.181150 0.487495
vt 0.130821 0.481450
vt 0.080299 0.488480
vt 0.965935 0.495426
vt 0.922953 0.486052
vt 0.877710 0.482800
vt 0.832281 0.476167
vt 0.786363 0.465569
vt 0.739533 0.461311
vt 0.694236 0.457593
vt 0.648900 0.448560
vt 0.601832 0.433487
vt 0.971896 0.881249
vt 0.975599 0.893706
vt 0.042804 0.522592
vt 0.038080 0.510462
vt 0.977417 0.853747
vt 0.969419 0.534230
vn 0.937833 -0.157574 -0.309256
vn 0.666961 -0.468799 -0.579129
vn 0.663705 -0.472669 -0.579724
vn 0.935512 -0.160393 -0.314789
vn 0.726949 -0.517252 -0.451658
vn 0.719242 -0.521515 -0.459035
vn 0.989097 -0.122397 -0.081890
vn 0.988848 -0.123961 -0.082549
vn 0.998397 0.055909 0.008855
vn 0.998395 0.055945 0.008861
vn 0.907485 -0.374299 0.190715
vn 0.903002 -0.382808 0.195051
vn 0.842863 -0.456304 0.285252
vn 0.840448 -0.460271 0.286004
vn 0.984529 -0.123901 0.123900
vn 0.984348 -0.124616 0.124615
vn 0.917912 -0.062072 0.391900
vn 0.914215 -0.063393 0.400240
vn 0.858919 -0.194446 -0.473761
vn 0.842658 -0.193152 -0.502614
vn 0.710730 -0.110046 -0.694804
vn 0.690664 -0.113129 -0.714272
vn 0.969977 0.171966 0.171965
vn 0.969346 0.173737 0.173737
vn 0.969977 0.171965 0.171965
vn 0.969346 0.173737 0.173737
vn 0.614082 0.779525 0.123465
vn 0.589105 0.798108 0.126408
vn 0.685170 0.709542 0.164597
vn 0.656671 0.736143 0.163942
vn 0.497138 -0.789402 0.360136
vn 0.480565 -0.796281 0.367415
vn 0.401340 -0.768380 0.498516
vn 0.398466 -0.771121 0.496586
vn 0.666960 -0.468800 0.579129
vn 0.663704 -0.472670 0.579724
vn 0.937833 -0.157573 0.309257
vn 0.935512 -0.160392 0.314789
vn 1.000000 0.000001 0.000000
vn 1.000000 0.000001 0.000000
vn -0.000000 0.962393 -0.271663
vn 0.000000 0.858678 -0.512515
vn 0.000000 0.820379 -0.571820
vn -0.000000 0.956305 -0.292372
vn 0.000000 0.634448 -0.772965
vn 0.000000 0.632363 -0.774672
vn 0.000000 0.320273 -0.947325
vn 0.000000 0.315041 -0.949078
vn 0.000000 -0.006368 -0.999980
vn 0.000000 -0.029900 -0.999553
vn 0.000000 -0.264403 -0.964412
vn 0.000000 -0.336930 -0.941530
vn -0.000000 -0.549423 -0.835544
vn -0.000000 -0.624781 -0.780800
vn -0.000000 -0.800074 -0.599902
vn -0.000000 -0.808733 -0.588176
vn -0.000000 -0.935566 -0.353152
vn -0.000000 -0.926590 -0.376073
vn -0.000000 -0.999922 0.012471
vn -0.000000 -0.999305 -0.037287
vn -0.000000 -0.921018 0.389519
vn -0.000000 -0.940196 0.340633
vn -0.000000 -0.823419 0.567433
vn -0.000000 -0.780233 0.625489
vn 0.000000 -0.603820 0.797121
vn 0.000000 -0.588335 0.808617
vn 0.000000 -0.401087 0.916040
vn 0.000000 -0.357501 0.933913
vn 0.000000 -0.030235 0.999543
vn 0.000000 -0.033905 0.999425
vn 0.000000 0.375710 0.926737
vn 0.000000 0.340179 0.940361
vn -0.000000 0.683130 0.730297
vn -0.000000 0.634852 0.772634
vn -0.000000 0.858846 0.512234
vn -0.000000 0.829469 0.558553
vn -0.000000 0.962390 0.271671
vn -0.000000 0.957488 0.288475
vn -0.000000 1.000000 0.000483
vn -0.000000 0.999787 0.020635
vn -0.980346 -0.030862 -0.194858
vn -0.986718 -0.114866 -0.114866
vn -0.986850 -0.114298 -0.114298
vn -0.980623 -0.030645 -0.193491
vn -0.871709 -0.414947 -0.260657
vn -0.873247 -0.412041 -0.260121
vn -0.987602 -0.076942 -0.136828
vn -0.988282 -0.071364 -0.134926
vn -0.960906 0.273465 0.043313
vn -0.961885 0.270089 0.042778
vn -0.901476 0.385654 -0.196501
vn -0.906068 0.377014 -0.192098
vn -0.901476 0.385655 -0.196500
vn -0.906068 0.377014 -0.192098
vn -1.000000 0.000000 0.000001
vn -1.000000 0.000000 0.000001
vn -0.789514 -0.096009 0.606176
vn -0.802749 -0.093284 0.588975
vn -0.789514 -0.096009 0.606176
vn -0.802749 -0.093284 0.588975
vn -0.901723 -0.196267 -0.385195
vn -0.906297 -0.191876 -0.376576
vn -0.901723 -0.196267 -0.385195
vn -0.906297 -0.191876 -0.376576
vn -1.000000 0.000000 0.000000
vn -1.000000 0.000000 0.000000
vn -0.901723 0.426992 0.067629
vn -0.906297 0.417438 0.066116
vn -0.901723 0.426992 0.067629
vn -0.906297 0.417437 0.066116
vn -0.926555 -0.335160 0.170772
vn -0.929433 -0.328774 0.167519
vn -0.871709 -0.414947 0.260657
vn -0.873247 -0.412041 0.260121
vn -0.940775 -0.194883 0.277423
vn -0.940799 -0.194941 0.277299
vn -0.980346 -0.089565 0.175784
vn -0.980623 -0.088937 0.174551
vn -0.980346 -0.030861 -0.194859
vn -0.980623 -0.030644 -0.193491
vn 1.000000 0.000000 0.000000
vn 1.000000 0.000001 0.000000
vn 1.000000 -0.000000 0.000000
vn 1.000000 0.000000 0.000000
vn 1.000000 0.000000 0.000000
vn 1.000000 -0.000001 0.000000
vn 1.000000 -0.000001 0.000000
vn 1.000000 -0.000001 0.000000
vn 1.000000 -0.000000 -0.000001
vn 1.000000 0.000000 0.000000
vn 1.000000 -0.000000 0.000000
vn 1.000000 0.000000 -0.000001
vn 1.000000 0.000001 0.000001
vn 1.000000 0.000001 0.000001
vn 1.000000 -0.000002 0.000000
vn 1.000000 0.000000 0.000000
vn 1.000000 0.000001 0.000000
vn 1.000000 -0.000002 0.000000
vn 1.000000 -0.000001 0.000000
vn 1.000000 0.000000 -0.000000
vn 1.000000 0.000001 0.000000
vn -1.000000 0.000001 0.000000
vn -1.000000 0.000001 0.000001
vn -1.000000 -0.000000 0.000000
vn -1.000000 -0.000001 0.000000
vn -1.000000 -0.000001 -0.000000
vn -1.000000 -0.000001 0.000000
vn -1.000000 -0.000001 0.000000
vn -1.000000 0.000000 0.000000
vn -1.000000 0.000000 0.000000
vn -1.000000 -0.000000 0.000000
vn -1.000000 -0.000000 0.000000
vn -1.000000 0.000000 0.000000
vn -1.000000 0.000001 0.000000
vn -1.000000 0.000001 0.000000
vn -1.000000 -0.000002 0.000000
vn -1.000000 -0.000001 0.000000
vn -1.000000 0.000001 -0.000000
vn -1.000000 0.000000 0.000000
vn -1.000000 -0.000001 0.000001
vn -1.000000 -0.000001 -0.000001
vn -1.000000 0.000000 -0.000001
vn 0.000000 -0.867276 0.497828
vn 0.000000 -0.965009 0.262217
vn 0.000000 -0.952664 0.304025
vn 0.000000 -0.819666 0.572842
vn 0.000000 -0.648201 0.761469
vn 0.000000 -0.603708 0.797206
vn 0.000000 -0.324283 0.945960
vn 0.000000 -0.312356 0.949965
vn -0.000000 0.007836 0.999969
vn -0.000000 0.001383 0.999999
vn -0.000000 0.247276 0.968945
vn -0.000000 0.297366 0.954764
vn 0.000000 0.530221 0.847860
vn 0.000000 0.570935 0.820995
vn 0.000000 0.795006 0.606602
vn 0.000000 0.804981 0.593301
vn 0.000000 0.927998 0.372586
vn 0.000000 0.944786 0.327689
vn 0.000000 0.999327 -0.036691
vn 0.000000 0.999686 -0.025073
vn 0.000000 0.911737 -0.410774
vn 0.000000 0.941144 -0.338005
vn 0.000000 0.829921 -0.557880
vn 0.000000 0.812895 -0.582411
vn 0.000000 0.610908 -0.791701
vn 0.000000 0.593621 -0.804745
vn 0.000000 0.427490 -0.904020
vn 0.000000 0.359218 -0.933254
vn 0.000000 0.046329 -0.998926
vn 0.000000 0.112461 -0.993656
vn 0.000000 -0.442977 -0.896533
vn 0.000000 -0.426775 -0.904358
vn 0.000000 -0.696347 -0.717705
vn 0.000000 -0.633551 -0.773701
vn 0.000000 -0.867276 -0.497828
vn 0.000000 -0.819666 -0.572842
vn 0.000000 -0.965008 -0.262219
vn 0.000000 -0.952664 -0.304026
vn 0.000000 -1.000000 -0.000001
vn 0.000000 -1.000000 -0.000001
vn -0.000000 -0.958496 0.285107
vn -0.000000 -0.823674 0.567064
vn -0.000000 -0.812553 0.582887
vn -0.000000 -0.953136 0.302542
vn -0.000000 -0.651183 0.758921
vn -0.000000 -0.607870 0.794037
vn -0.000000 -0.320471 0.947258
vn -0.000000 -0.315011 0.949088
vn -0.000000 0.047975 0.998849
vn -0.000000 0.014789 0.999891
vn -0.000000 0.356622 0.934249
vn -0.000000 0.327605 0.944815
vn 0.000000 0.641062 0.767489
vn 0.000000 0.600427 0.799679
vn 0.000000 0.809017 0.587785
vn 0.000000 0.809017 0.587785
vn 0.000000 0.917200 0.398428
vn 0.000000 0.942428 0.334411
vn 0.000000 0.997208 0.074676
vn 0.000000 0.999178 0.040538
vn 0.000000 0.931552 -0.363609
vn 0.000000 0.942050 -0.335472
vn 0.000000 0.764944 -0.644097
vn 0.000000 0.796703 -0.604372
vn 0.000000 0.587785 -0.809017
vn 0.000000 0.587785 -0.809017
vn 0.000000 0.376192 -0.926542
vn 0.000000 0.328597 -0.944470
vn 0.000000 0.057948 -0.998320
vn 0.000000 0.027944 -0.999609
vn 0.000000 -0.358348 -0.933588
vn 0.000000 -0.332110 -0.943241
vn 0.000000 -0.651183 -0.758921
vn 0.000000 -0.607870 -0.794036
vn 0.000000 -0.836917 -0.547330
vn 0.000000 -0.816486 -0.577366
vn 0.000000 -0.959896 -0.280357
vn 0.000000 -0.952973 -0.303055
vn 0.000000 -0.999550 -0.029989
vn 0.000000 -0.999980 -0.006263
s 1
g pCylinder1
usemtl initialShadingGroup
f 1/1/1 2/2/2 22/3/3 21/4/4
f 2/2/2 3/5/5 23/6/6 22/3/3
f 3/5/5 4/7/7 24/8/8 23/6/6
f 4/7/7 5/9/9 25/10/10 24/8/8
f 5/9/9 6/11/11 26/12/12 25/10/10
f 6/11/11 7/13/13 27/14/14 26/12/12
f 7/13/13 8/15/15 28/16/16 27/14/14
f 8/15/15 9/17/17 29/18/18 28/16/16
f 9/17/17 10/19/19 30/168/20 29/18/18
f 10/165/19 11/21/21 31/22/22 30/20/20
f 11/21/21 12/23/23 32/24/24 31/22/22
f 12/23/23 13/25/25 33/26/26 32/24/24
f 13/25/25 14/27/27 34/28/28 33/26/26
f 14/27/27 15/29/29 35/30/30 34/28/28
f 15/29/29 16/31/31 36/32/32 35/30/30
f 16/31/31 17/33/33 37/34/34 36/32/32
f 17/33/33 18/35/35 38/36/36 37/34/34
f 18/35/35 19/37/37 39/38/38 38/36/36
f 19/37/37 20/39/39 40/40/40 39/38/38
f 20/39/39 1/1/1 21/4/4 40/40/40
s 2
f 21/4/41 22/3/42 42/41/43 41/42/44
f 22/3/42 23/6/45 43/43/46 42/41/43
f 23/6/45 24/8/47 44/44/48 43/43/46
f 24/8/47 25/10/49 45/45/50 44/44/48
f 25/10/49 26/12/51 46/46/52 45/45/50
f 26/12/51 27/14/53 47/47/54 46/46/52
f 27/14/53 28/16/55 48/48/56 47/47/54
f 28/16/55 29/18/57 49/49/58 48/48/56
f 29/18/57 30/168/59 50/167/60 49/49/58
f 30/20/59 31/22/61 51/51/62 50/50/60
f 31/22/61 32/24/63 52/52/64 51/51/62
f 32/24/63 33/26/65 53/53/66 52/52/64
f 33/26/65 34/28/67 54/54/68 53/53/66
f 34/28/67 35/30/69 55/55/70 54/54/68
f 35/30/69 36/32/71 56/56/72 55/55/70
f 36/32/71 37/34/73 57/57/74 56/56/72
f 37/34/73 38/36/75 58/58/76 57/57/74
f 38/36/75 39/38/77 59/59/78 58/58/76
f 39/38/77 40/40/79 60/60/80 59/59/78
f 40/40/79 21/4/41 41/42/44 60/60/80
s 3
f 41/42/81 42/41/82 62/61/83 61/62/84
f 42/41/82 43/43/85 63/63/86 62/61/83
f 43/43/85 44/44/87 64/64/88 63/63/86
f 44/44/87 45/45/89 65/65/90 64/64/88
f 45/45/89 46/46/91 66/66/92 65/65/90
f 46/46/91 47/47/93 67/67/94 66/66/92
f 47/47/93 48/48/95 68/68/96 67/67/94
f 48/48/95 49/49/97 69/69/98 68/68/96
f 49/49/97 50/167/99 70/163/100 69/69/98
f 50/50/99 51/51/101 71/71/102 70/70/100
f 51/51/101 52/52/103 72/72/104 71/71/102
f 52/52/103 53/53/105 73/73/106 72/72/104
f 53/53/105 54/54/107 74/74/108 73/73/106
f 54/54/107 55/55/109 75/75/110 74/74/108
f 55/55/109 56/56/111 76/76/112 75/75/110
f 56/56/111 57/57/113 77/77/114 76/76/112
f 57/57/113 58/58/115 78/78/116 77/77/114
f 58/58/115 59/59/117 79/79/118 78/78/116
f 59/59/117 60/60/119 80/80/120 79/79/118
f 60/60/119 41/42/81 61/62/84 80/80/120
s 4
f 82/81/121 81/144/122 83/83/123
f 84/84/124 82/81/121 83/83/123
f 85/85/125 84/84/124 83/83/123
f 86/86/126 85/85/125 83/83/123
f 87/87/127 86/86/126 83/83/123
f 88/88/128 87/87/127 83/83/123
f 89/89/129 88/88/128 83/83/123
f 90/90/130 89/89/129 83/83/123
f 91/91/131 90/90/130 83/83/123
f 92/92/132 91/91/131 83/83/123
f 93/93/133 92/92/132 83/83/123
f 94/94/134 93/93/133 83/83/123
f 95/95/135 94/94/134 83/83/123
f 96/96/136 95/95/135 83/83/123
f 97/97/137 96/96/136 83/83/123
f 98/98/138 97/97/137 83/83/123
f 99/99/139 98/98/138 83/83/123
f 100/100/140 99/99/139 83/83/123
f 101/101/141 100/100/140 83/83/123
f 81/144/122 101/101/141 83/83/123
s 5
f 102/102/142 103/142/143 104/104/144
f 103/142/143 105/141/145 104/104/144
f 105/141/145 106/140/146 104/104/144
f 106/140/146 107/139/147 104/104/144
f 107/139/147 108/138/148 104/104/144
f 108/138/148 109/137/149 104/104/144
f 109/137/149 110/136/150 104/104/144
f 110/136/150 111/135/151 104/104/144
f 111/135/151 112/134/152 104/104/144
f 112/134/152 113/133/153 104/104/144
f 113/133/153 114/132/154 104/104/144
f 114/132/154 115/131/155 104/104/144
f 115/131/155 116/130/156 104/104/144
f 116/130/156 117/129/157 104/104/144
f 117/129/157 118/128/158 104/104/144
f 118/128/158 119/127/159 104/104/144
f 119/127/159 120/126/160 104/104/144
f 120/126/160 121/125/161 104/104/144
f 121/125/161 122/123/162 104/104/144
f 122/123/162 102/102/142 104/104/144
s 6
f 2/2/163 1/1/164 81/82/165 82/162/166
f 3/5/167 2/2/163 82/162/166 84/161/168
f 4/7/169 3/5/167 84/161/168 85/160/170
f 5/9/171 4/7/169 85/160/170 86/159/172
f 6/11/173 5/9/171 86/159/172 87/158/174
f 7/13/175 6/11/173 87/158/174 88/157/176
f 8/15/177 7/13/175 88/157/176 89/156/178
f 9/17/179 8/15/177 89/156/178 90/155/180
f 10/19/181 9/17/179 90/155/180 91/154/182
f 11/21/183 10/165/181 91/166/182 92/153/184
f 12/23/185 11/21/183 92/153/184 93/152/186
f 13/25/187 12/23/185 93/152/186 94/151/188
f 14/27/189 13/25/187 94/151/188 95/150/190
f 15/29/191 14/27/189 95/150/190 96/149/192
f 16/31/193 15/29/191 96/149/192 97/148/194
f 17/33/195 16/31/193 97/148/194 98/147/196
f 18/35/197 17/33/195 98/147/196 99/146/198
f 19/37/199 18/35/197 99/146/198 100/145/200
f 20/39/201 19/37/199 100/145/200 101/143/202
f 1/1/164 20/39/201 101/143/202 81/82/165
s 7
f 61/62/203 62/61/204 103/103/205 102/124/206
f 62/61/204 63/63/207 105/105/208 103/103/205
f 63/63/207 64/64/209 106/106/210 105/105/208
f 64/64/209 65/65/211 107/107/212 106/106/210
f 65/65/211 66/66/213 108/108/214 107/107/212
f 66/66/213 67/67/215 109/109/216 108/108/214
f 67/67/215 68/68/217 110/110/218 109/109/216
f 68/68/217 69/69/219 111/111/220 110/110/218
f 69/69/219 70/163/221 112/164/222 111/111/220
f 70/70/221 71/71/223 113/113/224 112/112/222
f 71/71/223 72/72/225 114/114/226 113/113/224
f 72/72/225 73/73/227 115/115/228 114/114/226
f 73/73/227 74/74/229 116/116/230 115/115/228
f 74/74/229 75/75/231 117/117/232 116/116/230
f 75/75/231 76/76/233 118/118/234 117/117/232
f 76/76/233 77/77/235 119/119/236 118/118/234
f 77/77/235 78/78/237 120/120/238 119/119/236
f 78/78/237 79/79/239 121/121/240 120/120/238
f 79/79/239 80/80/241 122/122/242 121/121/240
f 80/80/241 61/62/203 102/124/206 122/122/242
