# This file uses centimeters as units for non-parametric coordinates.

mtllib HERBES02.mtl
g default
v -0.384707 0.000000 -0.319375
v -0.128236 0.000000 -0.106458
v 0.128236 0.000000 0.106458
v 0.384707 0.000000 0.319375
v -0.384707 0.303435 -0.319375
v -0.128236 0.303435 -0.106458
v 0.128236 0.303435 0.106458
v 0.384707 0.303435 0.319375
v -0.384707 0.606870 -0.319375
v -0.128236 0.606870 -0.106458
v 0.128236 0.606870 0.106458
v 0.384707 0.606870 0.319375
v -0.384707 0.910304 -0.319375
v -0.128236 0.910304 -0.106458
v 0.128236 0.910304 0.106458
v 0.384707 0.910304 0.319375
v -0.384707 1.213739 -0.319375
v -0.128236 1.213739 -0.106458
v 0.128236 1.213739 0.106458
v 0.384707 1.213739 0.319375
v -0.316047 0.000000 0.387446
v -0.105349 0.000000 0.129149
v 0.105349 0.000000 -0.129149
v 0.316047 0.000000 -0.387446
v -0.316047 0.303435 0.387446
v -0.105349 0.303435 0.129149
v 0.105349 0.303435 -0.129149
v 0.316047 0.303435 -0.387446
v -0.316047 0.606870 0.387446
v -0.105349 0.606870 0.129149
v 0.105349 0.606870 -0.129149
v 0.316047 0.606870 -0.387446
v -0.316047 0.910304 0.387446
v -0.105349 0.910304 0.129149
v 0.105349 0.910304 -0.129149
v 0.316047 0.910304 -0.387446
v -0.316047 1.213739 0.387446
v -0.105349 1.213739 0.129149
v 0.105349 1.213739 -0.129149
v 0.316047 1.213739 -0.387446
v -0.500000 0.000000 0.000000
v -0.166667 0.000000 0.000000
v 0.166667 0.000000 0.000000
v 0.500000 0.000000 0.000000
v -0.500000 0.250000 0.000000
v -0.166667 0.250000 0.000000
v 0.166667 0.250000 0.000000
v 0.500000 0.250000 0.000000
v -0.500000 0.500000 0.000000
v -0.166667 0.500000 0.000000
v 0.166667 0.500000 0.000000
v 0.500000 0.500000 0.000000
v -0.500000 0.750000 0.000000
v -0.166667 0.750000 0.000000
v 0.166667 0.750000 0.000000
v 0.500000 0.750000 0.000000
v -0.500000 1.000000 0.000000
v -0.166667 1.000000 0.000000
v 0.166667 1.000000 0.000000
v 0.500000 1.000000 0.000000
vt 0.000000 0.000000
vt 0.333333 0.000000
vt 0.666667 0.000000
vt 1.000000 0.000000
vt 0.000000 0.250000
vt 0.333333 0.250000
vt 0.666667 0.250000
vt 1.000000 0.250000
vt 0.000000 0.500000
vt 0.333333 0.500000
vt 0.666667 0.500000
vt 1.000000 0.500000
vt 0.000000 0.750000
vt 0.333333 0.750000
vt 0.666667 0.750000
vt 1.000000 0.750000
vt 0.000000 1.000000
vt 0.333333 1.000000
vt 0.666667 1.000000
vt 1.000000 1.000000
vt 0.000000 0.000000
vt 0.333333 0.000000
vt 0.333333 0.250000
vt 0.000000 0.250000
vt 0.666667 0.000000
vt 0.666667 0.250000
vt 1.000000 0.000000
vt 1.000000 0.250000
vt 0.333333 0.500000
vt 0.000000 0.500000
vt 0.666667 0.500000
vt 1.000000 0.500000
vt 0.333333 0.750000
vt 0.000000 0.750000
vt 0.666667 0.750000
vt 1.000000 0.750000
vt 0.333333 1.000000
vt 0.000000 1.000000
vt 0.666667 1.000000
vt 1.000000 1.000000
vt 0.000000 0.000000
vt 0.333333 0.000000
vt 0.333333 0.250000
vt 0.000000 0.250000
vt 0.666667 0.000000
vt 0.666667 0.250000
vt 1.000000 0.000000
vt 1.000000 0.250000
vt 0.333333 0.500000
vt 0.000000 0.500000
vt 0.666667 0.500000
vt 1.000000 0.500000
vt 0.333333 0.750000
vt 0.000000 0.750000
vt 0.666667 0.750000
vt 1.000000 0.750000
vt 0.333333 1.000000
vt 0.000000 1.000000
vt 0.666667 1.000000
vt 1.000000 1.000000
vn -0.638751 0.000000 0.769414
vn -0.638751 0.000000 0.769414
vn -0.638751 0.000000 0.769414
vn -0.638751 0.000000 0.769414
vn -0.638751 0.000000 0.769414
vn -0.638751 0.000000 0.769414
vn -0.638751 0.000000 0.769414
vn -0.638751 0.000000 0.769414
vn -0.638751 0.000000 0.769414
vn -0.638751 0.000000 0.769414
vn -0.638751 0.000000 0.769414
vn -0.638751 0.000000 0.769414
vn -0.638751 0.000000 0.769414
vn -0.638751 0.000000 0.769414
vn -0.638751 0.000000 0.769414
vn -0.638751 0.000000 0.769414
vn -0.638751 0.000000 0.769414
vn -0.638751 0.000000 0.769414
vn -0.638751 0.000000 0.769414
vn -0.638751 0.000000 0.769414
vn 0.774893 0.000000 0.632093
vn 0.774893 0.000000 0.632093
vn 0.774893 0.000000 0.632093
vn 0.774893 0.000000 0.632093
vn 0.774893 0.000000 0.632093
vn 0.774893 0.000000 0.632093
vn 0.774893 0.000000 0.632093
vn 0.774893 0.000000 0.632093
vn 0.774893 0.000000 0.632093
vn 0.774893 0.000000 0.632093
vn 0.774893 0.000000 0.632093
vn 0.774893 0.000000 0.632093
vn 0.774893 0.000000 0.632093
vn 0.774893 0.000000 0.632093
vn 0.774893 0.000000 0.632093
vn 0.774893 0.000000 0.632093
vn 0.774893 0.000000 0.632093
vn 0.774893 0.000000 0.632093
vn 0.774893 0.000000 0.632093
vn 0.774893 0.000000 0.632093
vn 0.000000 0.000000 1.000000
vn 0.000000 0.000000 1.000000
vn 0.000000 0.000000 1.000000
vn 0.000000 0.000000 1.000000
vn 0.000000 0.000000 1.000000
vn 0.000000 0.000000 1.000000
vn 0.000000 0.000000 1.000000
vn 0.000000 0.000000 1.000000
vn 0.000000 0.000000 1.000000
vn 0.000000 0.000000 1.000000
vn 0.000000 0.000000 1.000000
vn 0.000000 0.000000 1.000000
vn 0.000000 0.000000 1.000000
vn 0.000000 0.000000 1.000000
vn 0.000000 0.000000 1.000000
vn 0.000000 0.000000 1.000000
vn 0.000000 0.000000 1.000000
vn 0.000000 0.000000 1.000000
vn 0.000000 0.000000 1.000000
vn 0.000000 0.000000 1.000000
s 1
g pPlane4
usemtl initialShadingGroup
f 1/1/1 2/2/2 6/6/3 5/5/4
f 2/2/2 3/3/5 7/7/6 6/6/3
f 3/3/5 4/4/7 8/8/8 7/7/6
f 5/5/4 6/6/3 10/10/9 9/9/10
f 6/6/3 7/7/6 11/11/11 10/10/9
f 7/7/6 8/8/8 12/12/12 11/11/11
f 9/9/10 10/10/9 14/14/13 13/13/14
f 10/10/9 11/11/11 15/15/15 14/14/13
f 11/11/11 12/12/12 16/16/16 15/15/15
f 13/13/14 14/14/13 18/18/17 17/17/18
f 14/14/13 15/15/15 19/19/19 18/18/17
f 15/15/15 16/16/16 20/20/20 19/19/19
s 2
f 21/21/21 22/22/22 26/23/23 25/24/24
f 22/22/22 23/25/25 27/26/26 26/23/23
f 23/25/25 24/27/27 28/28/28 27/26/26
f 25/24/24 26/23/23 30/29/29 29/30/30
f 26/23/23 27/26/26 31/31/31 30/29/29
f 27/26/26 28/28/28 32/32/32 31/31/31
f 29/30/30 30/29/29 34/33/33 33/34/34
f 30/29/29 31/31/31 35/35/35 34/33/33
f 31/31/31 32/32/32 36/36/36 35/35/35
f 33/34/34 34/33/33 38/37/37 37/38/38
f 34/33/33 35/35/35 39/39/39 38/37/37
f 35/35/35 36/36/36 40/40/40 39/39/39
s 3
f 41/41/41 42/42/42 46/43/43 45/44/44
f 42/42/42 43/45/45 47/46/46 46/43/43
f 43/45/45 44/47/47 48/48/48 47/46/46
f 45/44/44 46/43/43 50/49/49 49/50/50
f 46/43/43 47/46/46 51/51/51 50/49/49
f 47/46/46 48/48/48 52/52/52 51/51/51
f 49/50/50 50/49/49 54/53/53 53/54/54
f 50/49/49 51/51/51 55/55/55 54/53/53
f 51/51/51 52/52/52 56/56/56 55/55/55
f 53/54/54 54/53/53 58/57/57 57/58/58
f 54/53/53 55/55/55 59/59/59 58/57/57
f 55/55/55 56/56/56 60/60/60 59/59/59
