# This file uses centimeters as units for non-parametric coordinates.

mtllib SM_Ripples.mtl
g default
v 7.421087 0.000000 -1.860447
v 6.312754 0.000000 -3.538780
v 4.586483 0.000000 -4.870713
v 2.411257 0.000000 -5.725867
v 0.000000 0.000000 -6.020532
v -2.411257 0.000000 -5.725866
v -4.586483 0.000000 -4.870712
v -6.312752 0.000000 -3.538779
v -7.421084 0.000000 -1.860446
v -7.802989 0.000000 0.000000
v -7.421084 0.000000 1.860446
v -6.312751 0.000000 3.538779
v -4.586482 0.000000 4.870711
v -2.411256 0.000000 5.725864
v -0.000000 0.000000 6.020530
v 2.411256 0.000000 5.725863
v 4.586481 0.000000 4.870711
v 6.312750 0.000000 3.538778
v 7.421082 0.000000 1.860446
v 7.802987 0.000000 0.000000
v 1.187122 0.000000 -2.065874
v 1.009827 0.000000 -2.334351
v 0.733682 0.000000 -2.547416
v 0.385719 0.000000 -2.684210
v -0.000000 0.000000 -2.731346
v -0.385720 0.000000 -2.684210
v -0.733683 0.000000 -2.547416
v -1.009828 0.000000 -2.334351
v -1.187122 0.000000 -2.065874
v -1.248213 0.000000 -1.768266
v -1.187122 0.000000 -1.470657
v -1.009828 0.000000 -1.202181
v -0.733683 0.000000 -0.989116
v -0.385719 0.000000 -0.852321
v -0.000000 0.000000 -0.805186
v 0.385719 0.000000 -0.852322
v 0.733682 0.000000 -0.989116
v 1.009827 0.000000 -1.202181
v 1.187121 0.000000 -1.470657
v 1.248212 0.000000 -1.768266
v 5.993209 0.000000 -1.907499
v 5.098129 0.000000 -3.262908
v 3.704007 0.000000 -4.338566
v 1.947311 0.000000 -5.029181
v -0.000000 0.000000 -5.267150
v -1.947312 0.000000 -5.029181
v -3.704007 0.000000 -4.338566
v -5.098128 0.000000 -3.262907
v -5.993208 0.000000 -1.907499
v -6.301630 0.000000 -0.405018
v -5.993208 0.000000 1.097463
v -5.098127 0.000000 2.452872
v -3.704006 0.000000 3.528529
v -1.947311 0.000000 4.219144
v -0.000000 0.000000 4.457113
v 1.947310 0.000000 4.219143
v 3.704005 0.000000 3.528529
v 5.098126 0.000000 2.452871
v 5.993206 0.000000 1.097463
v 6.301629 0.000000 -0.405018
v 4.328491 0.000000 -1.962357
v 3.682035 0.000000 -2.941277
v 2.675155 0.000000 -3.718153
v 1.406412 0.000000 -4.216937
v -0.000000 0.000000 -4.388806
v -1.406412 0.000000 -4.216937
v -2.675155 0.000000 -3.718153
v -3.682035 0.000000 -2.941277
v -4.328490 0.000000 -1.962356
v -4.551243 0.000000 -0.877215
v -4.328490 0.000000 0.207925
v -3.682034 0.000000 1.186845
v -2.675154 0.000000 1.963721
v -1.406412 0.000000 2.462505
v -0.000000 0.000000 2.634374
v 1.406411 0.000000 2.462504
v 2.675153 0.000000 1.963721
v 3.682033 0.000000 1.186845
v 4.328488 0.000000 0.207925
v 4.551242 0.000000 -0.877215
v 2.670052 0.000000 -2.017007
v 2.271283 0.000000 -2.620860
v 1.650183 0.000000 -3.100080
v 0.867552 0.000000 -3.407757
v -0.000000 0.000000 -3.513775
v -0.867553 0.000000 -3.407757
v -1.650184 0.000000 -3.100080
v -2.271284 0.000000 -2.620859
v -2.670052 0.000000 -2.017007
v -2.807458 0.000000 -1.347632
v -2.670052 0.000000 -0.678257
v -2.271283 0.000000 -0.074405
v -1.650184 0.000000 0.404815
v -0.867552 0.000000 0.712492
v -0.000000 0.000000 0.818510
v 0.867552 0.000000 0.712492
v 1.650182 0.000000 0.404815
v 2.271282 0.000000 -0.074405
v 2.670051 0.000000 -0.678257
v 2.807456 0.000000 -1.347632
v 1.557964 0.000000 -2.053654
v 1.325285 0.000000 -2.406000
v 0.962875 0.000000 -2.685623
v 0.506213 0.000000 -2.865150
v -0.000000 0.000000 -2.927011
v -0.506214 0.000000 -2.865150
v -0.962876 0.000000 -2.685623
v -1.325285 0.000000 -2.406000
v -1.557964 0.000000 -2.053653
v -1.638140 0.000000 -1.663076
v -1.557964 0.000000 -1.272499
v -1.325285 0.000000 -0.920153
v -0.962876 0.000000 -0.640530
v -0.506213 0.000000 -0.461002
v -0.000000 0.000000 -0.399142
v 0.506213 0.000000 -0.461002
v 0.962875 0.000000 -0.640530
v 1.325284 0.000000 -0.920153
v 1.557963 0.000000 -1.272499
v 1.638139 0.000000 -1.663076
vt 0.254639 0.991669
vt 0.184157 0.991669
vt 0.184157 0.007837
vt 0.254639 0.007837
vt 0.124269 0.991669
vt 0.124269 0.007837
vt 0.047667 0.991669
vt 0.047667 0.007837
vt 0.011990 0.991669
vt 0.981397 0.007837
vt 0.932653 0.991669
vt 0.932653 0.007837
vt 0.874885 0.991669
vt 0.874885 0.007837
vt 0.809701 0.991669
vt 0.809701 0.007837
vt 0.772134 0.991669
vt 0.772134 0.007837
vt 0.737023 0.991669
vt 0.737023 0.007837
vt 0.715679 0.991669
vt 0.715679 0.007837
vt 0.689712 0.991669
vt 0.689712 0.007837
vt 0.658907 0.991669
vt 0.658907 0.007837
vt 0.623320 0.991669
vt 0.623320 0.007837
vt 0.570997 0.991669
vt 0.570997 0.007837
vt 0.511481 0.991669
vt 0.511481 0.007837
vt 0.465585 0.991669
vt 0.465585 0.007837
vt 0.414174 0.991669
vt 0.414174 0.007837
vt 0.358862 0.991669
vt 0.358862 0.007837
vt 0.316331 0.991669
vt 0.316331 0.007837
vt 0.981397 0.991669
vt 0.011990 0.007837
vt 0.254639 0.766324
vt 0.184157 0.766324
vt 0.124269 0.766324
vt 0.047667 0.766324
vt 0.011990 0.766324
vt 0.981397 0.766324
vt 0.932653 0.766324
vt 0.874885 0.766324
vt 0.809701 0.766324
vt 0.772134 0.766324
vt 0.737023 0.766324
vt 0.715679 0.766324
vt 0.689712 0.766324
vt 0.658907 0.766324
vt 0.623320 0.766324
vt 0.570997 0.766324
vt 0.511481 0.766324
vt 0.465585 0.766324
vt 0.414174 0.766324
vt 0.358862 0.766324
vt 0.316331 0.766324
vt 0.254639 0.503602
vt 0.184157 0.503602
vt 0.124269 0.503602
vt 0.047667 0.503602
vt 0.011990 0.503602
vt 0.981397 0.503602
vt 0.932653 0.503602
vt 0.874885 0.503602
vt 0.809701 0.503602
vt 0.772134 0.503602
vt 0.737023 0.503602
vt 0.715679 0.503602
vt 0.689712 0.503602
vt 0.658907 0.503602
vt 0.623320 0.503602
vt 0.570997 0.503602
vt 0.511481 0.503602
vt 0.465585 0.503602
vt 0.414174 0.503602
vt 0.358862 0.503602
vt 0.316331 0.503602
vt 0.254639 0.241870
vt 0.184157 0.241870
vt 0.124269 0.241870
vt 0.047667 0.241870
vt 0.011990 0.241870
vt 0.981397 0.241870
vt 0.932653 0.241870
vt 0.874885 0.241870
vt 0.809701 0.241870
vt 0.772134 0.241870
vt 0.737023 0.241870
vt 0.715679 0.241870
vt 0.689712 0.241870
vt 0.658907 0.241870
vt 0.623320 0.241870
vt 0.570997 0.241870
vt 0.511481 0.241870
vt 0.465585 0.241870
vt 0.414174 0.241870
vt 0.358862 0.241870
vt 0.316331 0.241870
vt 0.254639 0.066363
vt 0.184157 0.066363
vt 0.124269 0.066363
vt 0.047667 0.066363
vt 0.011990 0.066363
vt 0.981397 0.066363
vt 0.932653 0.066363
vt 0.874885 0.066363
vt 0.809701 0.066363
vt 0.772134 0.066363
vt 0.737023 0.066363
vt 0.715679 0.066363
vt 0.689712 0.066363
vt 0.658907 0.066363
vt 0.623320 0.066363
vt 0.570997 0.066363
vt 0.511481 0.066363
vt 0.465585 0.066363
vt 0.414174 0.066363
vt 0.358862 0.066363
vt 0.316331 0.066363
vn 0.000000 1.000000 0.000000
vn 0.000000 1.000000 0.000000
vn 0.000000 1.000000 0.000000
vn 0.000000 1.000000 0.000000
vn 0.000000 1.000000 0.000000
vn 0.000000 1.000000 0.000000
vn 0.000000 1.000000 0.000000
vn 0.000000 1.000000 0.000000
vn 0.000000 1.000000 0.000000
vn 0.000000 1.000000 0.000000
vn 0.000000 1.000000 0.000000
vn 0.000000 1.000000 0.000000
vn 0.000000 1.000000 0.000000
vn 0.000000 1.000000 0.000000
vn 0.000000 1.000000 0.000000
vn 0.000000 1.000000 0.000000
vn 0.000000 1.000000 0.000000
vn 0.000000 1.000000 0.000000
vn 0.000000 1.000000 0.000000
vn 0.000000 1.000000 0.000000
vn 0.000000 1.000000 0.000000
vn 0.000000 1.000000 0.000000
vn 0.000000 1.000000 0.000000
vn 0.000000 1.000000 0.000000
vn 0.000000 1.000000 0.000000
vn 0.000000 1.000000 0.000000
vn 0.000000 1.000000 0.000000
vn 0.000000 1.000000 0.000000
vn 0.000000 1.000000 0.000000
vn 0.000000 1.000000 0.000000
vn 0.000000 1.000000 0.000000
vn 0.000000 1.000000 0.000000
vn 0.000000 1.000000 0.000000
vn 0.000000 1.000000 0.000000
vn 0.000000 1.000000 0.000000
vn 0.000000 1.000000 0.000000
vn 0.000000 1.000000 0.000000
vn 0.000000 1.000000 0.000000
vn 0.000000 1.000000 0.000000
vn 0.000000 1.000000 0.000000
vn 0.000000 1.000000 0.000000
vn 0.000000 1.000000 0.000000
vn 0.000000 1.000000 0.000000
vn 0.000000 1.000000 0.000000
vn 0.000000 1.000000 0.000000
vn 0.000000 1.000000 0.000000
vn 0.000000 1.000000 0.000000
vn 0.000000 1.000000 0.000000
vn 0.000000 1.000000 0.000000
vn 0.000000 1.000000 0.000000
vn 0.000000 1.000000 0.000000
vn 0.000000 1.000000 0.000000
vn 0.000000 1.000000 0.000000
vn 0.000000 1.000000 0.000000
vn 0.000000 1.000000 0.000000
vn 0.000000 1.000000 0.000000
vn 0.000000 1.000000 0.000000
vn 0.000000 1.000000 0.000000
vn 0.000000 1.000000 0.000000
vn 0.000000 1.000000 0.000000
vn 0.000000 1.000000 0.000000
vn 0.000000 1.000000 0.000000
vn 0.000000 1.000000 0.000000
vn 0.000000 1.000000 0.000000
vn 0.000000 1.000000 0.000000
vn 0.000000 1.000000 0.000000
vn 0.000000 1.000000 0.000000
vn 0.000000 1.000000 0.000000
vn 0.000000 1.000000 0.000000
vn 0.000000 1.000000 0.000000
vn 0.000000 1.000000 0.000000
vn 0.000000 1.000000 0.000000
vn 0.000000 1.000000 0.000000
vn 0.000000 1.000000 0.000000
vn 0.000000 1.000000 0.000000
vn 0.000000 1.000000 0.000000
vn 0.000000 1.000000 0.000000
vn 0.000000 1.000000 0.000000
vn 0.000000 1.000000 0.000000
vn 0.000000 1.000000 0.000000
vn 0.000000 1.000000 0.000000
vn 0.000000 1.000000 0.000000
vn 0.000000 1.000000 0.000000
vn 0.000000 1.000000 0.000000
vn 0.000000 1.000000 0.000000
vn 0.000000 1.000000 0.000000
vn 0.000000 1.000000 0.000000
vn 0.000000 1.000000 0.000000
vn 0.000000 1.000000 0.000000
vn 0.000000 1.000000 0.000000
vn 0.000000 1.000000 0.000000
vn 0.000000 1.000000 0.000000
vn 0.000000 1.000000 0.000000
vn 0.000000 1.000000 0.000000
vn 0.000000 1.000000 0.000000
vn 0.000000 1.000000 0.000000
vn 0.000000 1.000000 0.000000
vn 0.000000 1.000000 0.000000
vn 0.000000 1.000000 0.000000
vn 0.000000 1.000000 0.000000
vn 0.000000 1.000000 0.000000
vn 0.000000 1.000000 0.000000
vn 0.000000 1.000000 0.000000
vn 0.000000 1.000000 0.000000
vn 0.000000 1.000000 0.000000
vn 0.000000 1.000000 0.000000
vn 0.000000 1.000000 0.000000
vn 0.000000 1.000000 0.000000
vn 0.000000 1.000000 0.000000
vn 0.000000 1.000000 0.000000
vn 0.000000 1.000000 0.000000
vn 0.000000 1.000000 0.000000
vn 0.000000 1.000000 0.000000
vn 0.000000 1.000000 0.000000
vn 0.000000 1.000000 0.000000
vn 0.000000 1.000000 0.000000
vn 0.000000 1.000000 0.000000
vn 0.000000 1.000000 0.000000
vn 0.000000 1.000000 0.000000
vn 0.000000 1.000000 0.000000
s 1
g pCylinder33
usemtl initialShadingGroup
f 101/106/1 102/107/2 22/3/3 21/4/4
f 102/107/2 103/108/5 23/6/6 22/3/3
f 103/108/5 104/109/7 24/8/8 23/6/6
f 104/109/7 105/110/9 25/42/10 24/8/8
f 105/111/9 106/112/11 26/12/12 25/10/10
f 106/112/11 107/113/13 27/14/14 26/12/12
f 107/113/13 108/114/15 28/16/16 27/14/14
f 108/114/15 109/115/17 29/18/18 28/16/16
f 109/115/17 110/116/19 30/20/20 29/18/18
f 110/116/19 111/117/21 31/22/22 30/20/20
f 111/117/21 112/118/23 32/24/24 31/22/22
f 112/118/23 113/119/25 33/26/26 32/24/24
f 113/119/25 114/120/27 34/28/28 33/26/26
f 114/120/27 115/121/29 35/30/30 34/28/28
f 115/121/29 116/122/31 36/32/32 35/30/30
f 116/122/31 117/123/33 37/34/34 36/32/32
f 117/123/33 118/124/35 38/36/36 37/34/34
f 118/124/35 119/125/37 39/38/38 38/36/36
f 119/125/37 120/126/39 40/40/40 39/38/38
f 120/126/39 101/106/1 21/4/4 40/40/40
f 1/1/41 2/2/42 42/44/43 41/43/44
f 2/2/42 3/5/45 43/45/46 42/44/43
f 3/5/45 4/7/47 44/46/48 43/45/46
f 4/7/47 5/9/49 45/47/50 44/46/48
f 5/41/49 6/11/51 46/49/52 45/48/50
f 6/11/51 7/13/53 47/50/54 46/49/52
f 7/13/53 8/15/55 48/51/56 47/50/54
f 8/15/55 9/17/57 49/52/58 48/51/56
f 9/17/57 10/19/59 50/53/60 49/52/58
f 10/19/59 11/21/61 51/54/62 50/53/60
f 11/21/61 12/23/63 52/55/64 51/54/62
f 12/23/63 13/25/65 53/56/66 52/55/64
f 13/25/65 14/27/67 54/57/68 53/56/66
f 14/27/67 15/29/69 55/58/70 54/57/68
f 15/29/69 16/31/71 56/59/72 55/58/70
f 16/31/71 17/33/73 57/60/74 56/59/72
f 17/33/73 18/35/75 58/61/76 57/60/74
f 18/35/75 19/37/77 59/62/78 58/61/76
f 19/37/77 20/39/79 60/63/80 59/62/78
f 20/39/79 1/1/41 41/43/44 60/63/80
f 41/43/44 42/44/43 62/65/81 61/64/82
f 42/44/43 43/45/46 63/66/83 62/65/81
f 43/45/46 44/46/48 64/67/84 63/66/83
f 44/46/48 45/47/50 65/68/85 64/67/84
f 45/48/50 46/49/52 66/70/86 65/69/85
f 46/49/52 47/50/54 67/71/87 66/70/86
f 47/50/54 48/51/56 68/72/88 67/71/87
f 48/51/56 49/52/58 69/73/89 68/72/88
f 49/52/58 50/53/60 70/74/90 69/73/89
f 50/53/60 51/54/62 71/75/91 70/74/90
f 51/54/62 52/55/64 72/76/92 71/75/91
f 52/55/64 53/56/66 73/77/93 72/76/92
f 53/56/66 54/57/68 74/78/94 73/77/93
f 54/57/68 55/58/70 75/79/95 74/78/94
f 55/58/70 56/59/72 76/80/96 75/79/95
f 56/59/72 57/60/74 77/81/97 76/80/96
f 57/60/74 58/61/76 78/82/98 77/81/97
f 58/61/76 59/62/78 79/83/99 78/82/98
f 59/62/78 60/63/80 80/84/100 79/83/99
f 60/63/80 41/43/44 61/64/82 80/84/100
f 61/64/82 62/65/81 82/86/101 81/85/102
f 62/65/81 63/66/83 83/87/103 82/86/101
f 63/66/83 64/67/84 84/88/104 83/87/103
f 64/67/84 65/68/85 85/89/105 84/88/104
f 65/69/85 66/70/86 86/91/106 85/90/105
f 66/70/86 67/71/87 87/92/107 86/91/106
f 67/71/87 68/72/88 88/93/108 87/92/107
f 68/72/88 69/73/89 89/94/109 88/93/108
f 69/73/89 70/74/90 90/95/110 89/94/109
f 70/74/90 71/75/91 91/96/111 90/95/110
f 71/75/91 72/76/92 92/97/112 91/96/111
f 72/76/92 73/77/93 93/98/113 92/97/112
f 73/77/93 74/78/94 94/99/114 93/98/113
f 74/78/94 75/79/95 95/100/115 94/99/114
f 75/79/95 76/80/96 96/101/116 95/100/115
f 76/80/96 77/81/97 97/102/117 96/101/116
f 77/81/97 78/82/98 98/103/118 97/102/117
f 78/82/98 79/83/99 99/104/119 98/103/118
f 79/83/99 80/84/100 100/105/120 99/104/119
f 80/84/100 61/64/82 81/85/102 100/105/120
f 81/85/102 82/86/101 102/107/2 101/106/1
f 82/86/101 83/87/103 103/108/5 102/107/2
f 83/87/103 84/88/104 104/109/7 103/108/5
f 84/88/104 85/89/105 105/110/9 104/109/7
f 85/90/105 86/91/106 106/112/11 105/111/9
f 86/91/106 87/92/107 107/113/13 106/112/11
f 87/92/107 88/93/108 108/114/15 107/113/13
f 88/93/108 89/94/109 109/115/17 108/114/15
f 89/94/109 90/95/110 110/116/19 109/115/17
f 90/95/110 91/96/111 111/117/21 110/116/19
f 91/96/111 92/97/112 112/118/23 111/117/21
f 92/97/112 93/98/113 113/119/25 112/118/23
f 93/98/113 94/99/114 114/120/27 113/119/25
f 94/99/114 95/100/115 115/121/29 114/120/27
f 95/100/115 96/101/116 116/122/31 115/121/29
f 96/101/116 97/102/117 117/123/33 116/122/31
f 97/102/117 98/103/118 118/124/35 117/123/33
f 98/103/118 99/104/119 119/125/37 118/124/35
f 99/104/119 100/105/120 120/126/39 119/125/37
f 100/105/120 81/85/102 101/106/1 120/126/39
