# This file uses centimeters as units for non-parametric coordinates.

mtllib Boule_trail.mtl
g default
v -5.131891 -0.363668 -0.118163
v -5.131891 -0.309354 -0.224759
v -5.131891 -0.224759 -0.309355
v -5.131891 -0.118163 -0.363668
v -5.131891 0.000000 -0.382383
v -5.131891 0.118163 -0.363668
v -5.131891 0.224759 -0.309355
v -5.131891 0.309354 -0.224759
v -5.131891 0.363668 -0.118163
v -5.131891 0.382383 -0.000000
v -5.131891 0.363668 0.118163
v -5.131891 0.309354 0.224759
v -5.131891 0.224759 0.309354
v -5.131891 0.118163 0.363668
v -5.131891 0.000000 0.382383
v -5.131891 -0.118163 0.363668
v -5.131891 -0.224759 0.309354
v -5.131891 -0.309354 0.224759
v -5.131891 -0.363667 0.118163
v -5.131891 -0.382382 -0.000000
v -3.510587 -0.601123 -0.195317
v -3.510587 -0.511346 -0.371515
v -3.510587 -0.371514 -0.511346
v -3.510587 -0.195317 -0.601123
v -3.510587 0.000000 -0.632058
v -3.510587 0.195317 -0.601123
v -3.510587 0.371515 -0.511346
v -3.510587 0.511346 -0.371514
v -3.510587 0.601123 -0.195317
v -3.510587 0.632058 -0.000000
v -3.510587 0.601123 0.195317
v -3.510587 0.511346 0.371514
v -3.510587 0.371515 0.511346
v -3.510587 0.195317 0.601123
v -3.510587 0.000000 0.632058
v -3.510587 -0.195317 0.601123
v -3.510587 -0.371514 0.511346
v -3.510587 -0.511345 0.371514
v -3.510587 -0.601123 0.195317
v -3.510587 -0.632058 -0.000000
v -2.713244 -0.538635 -0.175013
v -2.713244 -0.458190 -0.332895
v -2.713244 -0.332895 -0.458190
v -2.713244 -0.175013 -0.538635
v -2.713244 0.000000 -0.566354
v -2.713244 0.175013 -0.538635
v -2.713244 0.332895 -0.458190
v -2.713244 0.458190 -0.332895
v -2.713244 0.538635 -0.175013
v -2.713244 0.566354 -0.000000
v -2.713244 0.538635 0.175013
v -2.713244 0.458190 0.332894
v -2.713244 0.332895 0.458190
v -2.713244 0.175013 0.538635
v -2.713244 0.000000 0.566354
v -2.713244 -0.175013 0.538635
v -2.713244 -0.332894 0.458190
v -2.713244 -0.458190 0.332894
v -2.713244 -0.538635 0.175013
v -2.713244 -0.566354 -0.000000
v -0.261940 -0.851076 -0.276531
v -0.261940 -0.723969 -0.525994
v -0.261940 -0.525994 -0.723968
v -0.261940 -0.276531 -0.851076
v -0.261940 0.000000 -0.894874
v -0.261940 0.276531 -0.851076
v -0.261940 0.525994 -0.723968
v -0.261940 0.723968 -0.525994
v -0.261940 0.851076 -0.276531
v -0.261940 0.894874 -0.000000
v -0.261940 0.851076 0.276531
v -0.261940 0.723968 0.525994
v -0.261940 0.525994 0.723968
v -0.261940 0.276531 0.851076
v -0.261940 0.000000 0.894874
v -0.261940 -0.276531 0.851075
v -0.261940 -0.525994 0.723968
v -0.261940 -0.723968 0.525994
v -0.261940 -0.851075 0.276531
v -0.261940 -0.894874 -0.000000
v 0.645580 -0.876905 -0.284924
v 0.645580 -0.745940 -0.541957
v 0.645580 -0.541957 -0.745940
v 0.645580 -0.284924 -0.876905
v 0.645580 0.000000 -0.922032
v 0.645580 0.284924 -0.876905
v 0.645580 0.541957 -0.745939
v 0.645580 0.745939 -0.541957
v 0.645580 0.876904 -0.284924
v 0.645580 0.922032 -0.000000
v 0.645580 0.876904 0.284923
v 0.645580 0.745939 0.541957
v 0.645580 0.541957 0.745939
v 0.645580 0.284924 0.876904
v 0.645580 0.000000 0.922032
v 0.645580 -0.284923 0.876904
v 0.645580 -0.541957 0.745939
v 0.645580 -0.745939 0.541957
v 0.645580 -0.876904 0.284923
v 0.645580 -0.922032 -0.000000
vt 0.375000 0.312500
vt 0.387500 0.312500
vt 0.400000 0.312500
vt 0.412500 0.312500
vt 0.425000 0.312500
vt 0.437500 0.312500
vt 0.450000 0.312500
vt 0.462500 0.312500
vt 0.475000 0.312500
vt 0.487500 0.312500
vt 0.500000 0.312500
vt 0.512500 0.312500
vt 0.525000 0.312500
vt 0.537500 0.312500
vt 0.550000 0.312500
vt 0.562500 0.312500
vt 0.575000 0.312500
vt 0.587500 0.312500
vt 0.600000 0.312500
vt 0.612500 0.312500
vt 0.625000 0.312500
vt 0.375000 0.406485
vt 0.387500 0.406485
vt 0.400000 0.406485
vt 0.412500 0.406485
vt 0.425000 0.406485
vt 0.437500 0.406485
vt 0.450000 0.406485
vt 0.462500 0.406485
vt 0.475000 0.406485
vt 0.487500 0.406485
vt 0.500000 0.406485
vt 0.512500 0.406485
vt 0.525000 0.406485
vt 0.537500 0.406485
vt 0.550000 0.406485
vt 0.562500 0.406485
vt 0.575000 0.406485
vt 0.587500 0.406485
vt 0.600000 0.406485
vt 0.612500 0.406485
vt 0.625000 0.406485
vt 0.375000 0.500470
vt 0.387500 0.500470
vt 0.400000 0.500470
vt 0.412500 0.500470
vt 0.425000 0.500470
vt 0.437500 0.500470
vt 0.450000 0.500470
vt 0.462500 0.500470
vt 0.475000 0.500470
vt 0.487500 0.500470
vt 0.500000 0.500470
vt 0.512500 0.500470
vt 0.525000 0.500470
vt 0.537500 0.500470
vt 0.550000 0.500470
vt 0.562500 0.500470
vt 0.575000 0.500470
vt 0.587500 0.500470
vt 0.600000 0.500470
vt 0.612500 0.500470
vt 0.625000 0.500470
vt 0.375000 0.594455
vt 0.387500 0.594455
vt 0.400000 0.594455
vt 0.412500 0.594455
vt 0.425000 0.594455
vt 0.437500 0.594455
vt 0.450000 0.594455
vt 0.462500 0.594455
vt 0.475000 0.594455
vt 0.487500 0.594455
vt 0.500000 0.594455
vt 0.512500 0.594455
vt 0.525000 0.594455
vt 0.537500 0.594455
vt 0.550000 0.594455
vt 0.562500 0.594455
vt 0.575000 0.594455
vt 0.587500 0.594455
vt 0.600000 0.594455
vt 0.612500 0.594455
vt 0.625000 0.594455
vt 0.375000 0.688440
vt 0.387500 0.688440
vt 0.400000 0.688440
vt 0.412500 0.688440
vt 0.425000 0.688440
vt 0.437500 0.688440
vt 0.450000 0.688440
vt 0.462500 0.688440
vt 0.475000 0.688440
vt 0.487500 0.688440
vt 0.500000 0.688440
vt 0.512500 0.688440
vt 0.525000 0.688440
vt 0.537500 0.688440
vt 0.550000 0.688440
vt 0.562500 0.688440
vt 0.575000 0.688440
vt 0.587500 0.688440
vt 0.600000 0.688440
vt 0.612500 0.688440
vt 0.625000 0.688440
vn -0.152202 -0.939977 -0.305415
vn -0.152202 -0.799591 -0.580937
vn -0.066588 -0.807221 -0.586481
vn -0.066588 -0.948946 -0.308330
vn -0.152202 -0.580937 -0.799592
vn -0.066588 -0.586481 -0.807222
vn -0.152202 -0.305416 -0.939976
vn -0.066588 -0.308331 -0.948946
vn -0.152202 0.000000 -0.988349
vn -0.066588 0.000000 -0.997781
vn -0.152202 0.305416 -0.939976
vn -0.066588 0.308331 -0.948946
vn -0.152202 0.580937 -0.799591
vn -0.066587 0.586481 -0.807221
vn -0.152202 0.799592 -0.580937
vn -0.066588 0.807222 -0.586480
vn -0.152202 0.939976 -0.305416
vn -0.066588 0.948946 -0.308331
vn -0.152202 0.988349 0.000000
vn -0.066587 0.997781 0.000000
vn -0.152202 0.939976 0.305416
vn -0.066588 0.948946 0.308331
vn -0.152202 0.799591 0.580937
vn -0.066588 0.807222 0.586481
vn -0.152202 0.580937 0.799592
vn -0.066588 0.586481 0.807222
vn -0.152202 0.305416 0.939976
vn -0.066588 0.308331 0.948946
vn -0.152202 -0.000000 0.988349
vn -0.066588 -0.000000 0.997781
vn -0.152202 -0.305417 0.939976
vn -0.066588 -0.308331 0.948946
vn -0.152202 -0.580937 0.799592
vn -0.066587 -0.586481 0.807221
vn -0.152202 -0.799592 0.580937
vn -0.066587 -0.807222 0.586480
vn -0.152202 -0.939976 0.305416
vn -0.066588 -0.948946 0.308331
vn -0.152202 -0.988349 0.000002
vn -0.066588 -0.997781 0.000001
vn -0.088276 -0.805859 -0.585491
vn -0.088276 -0.947344 -0.307810
vn -0.088276 -0.585491 -0.805859
vn -0.088276 -0.307810 -0.947344
vn -0.088276 0.000000 -0.996096
vn -0.088276 0.307811 -0.947344
vn -0.088276 0.585491 -0.805859
vn -0.088276 0.805859 -0.585490
vn -0.088276 0.947344 -0.307810
vn -0.088276 0.996096 -0.000000
vn -0.088276 0.947344 0.307810
vn -0.088276 0.805859 0.585491
vn -0.088276 0.585491 0.805859
vn -0.088276 0.307810 0.947344
vn -0.088276 -0.000000 0.996096
vn -0.088276 -0.307811 0.947344
vn -0.088276 -0.585491 0.805859
vn -0.088276 -0.805859 0.585491
vn -0.088276 -0.947344 0.307810
vn -0.088276 -0.996096 0.000001
vn -0.100330 -0.804935 -0.584819
vn -0.100330 -0.946258 -0.307457
vn -0.100330 -0.584819 -0.804935
vn -0.100330 -0.307457 -0.946258
vn -0.100330 0.000000 -0.994954
vn -0.100330 0.307458 -0.946258
vn -0.100330 0.584820 -0.804935
vn -0.100330 0.804935 -0.584819
vn -0.100330 0.946258 -0.307458
vn -0.100330 0.994954 0.000000
vn -0.100330 0.946258 0.307458
vn -0.100330 0.804935 0.584820
vn -0.100330 0.584819 0.804935
vn -0.100330 0.307458 0.946258
vn -0.100330 -0.000000 0.994954
vn -0.100330 -0.307458 0.946258
vn -0.100330 -0.584819 0.804935
vn -0.100330 -0.804935 0.584819
vn -0.100330 -0.946258 0.307458
vn -0.100330 -0.994954 0.000001
vn -0.029912 -0.808655 -0.587522
vn -0.029912 -0.950631 -0.308878
vn -0.029912 -0.587522 -0.808655
vn -0.029912 -0.308878 -0.950631
vn -0.029912 0.000000 -0.999553
vn -0.029912 0.308879 -0.950631
vn -0.029912 0.587523 -0.808655
vn -0.029912 0.808655 -0.587522
vn -0.029912 0.950631 -0.308879
vn -0.029912 0.999553 0.000000
vn -0.029912 0.950631 0.308879
vn -0.029912 0.808655 0.587522
vn -0.029912 0.587522 0.808655
vn -0.029912 0.308879 0.950631
vn -0.029912 -0.000000 0.999553
vn -0.029912 -0.308879 0.950631
vn -0.029912 -0.587522 0.808655
vn -0.029912 -0.808655 0.587522
vn -0.029912 -0.950631 0.308879
vn -0.029912 -0.999553 0.000001
s 1
g pCylinder2
usemtl initialShadingGroup
f 1/1/1 2/2/2 22/23/3 21/22/4
f 2/2/2 3/3/5 23/24/6 22/23/3
f 3/3/5 4/4/7 24/25/8 23/24/6
f 4/4/7 5/5/9 25/26/10 24/25/8
f 5/5/9 6/6/11 26/27/12 25/26/10
f 6/6/11 7/7/13 27/28/14 26/27/12
f 7/7/13 8/8/15 28/29/16 27/28/14
f 8/8/15 9/9/17 29/30/18 28/29/16
f 9/9/17 10/10/19 30/31/20 29/30/18
f 10/10/19 11/11/21 31/32/22 30/31/20
f 11/11/21 12/12/23 32/33/24 31/32/22
f 12/12/23 13/13/25 33/34/26 32/33/24
f 13/13/25 14/14/27 34/35/28 33/34/26
f 14/14/27 15/15/29 35/36/30 34/35/28
f 15/15/29 16/16/31 36/37/32 35/36/30
f 16/16/31 17/17/33 37/38/34 36/37/32
f 17/17/33 18/18/35 38/39/36 37/38/34
f 18/18/35 19/19/37 39/40/38 38/39/36
f 19/19/37 20/20/39 40/41/40 39/40/38
f 20/20/39 1/21/1 21/42/4 40/41/40
f 21/22/4 22/23/3 42/44/41 41/43/42
f 22/23/3 23/24/6 43/45/43 42/44/41
f 23/24/6 24/25/8 44/46/44 43/45/43
f 24/25/8 25/26/10 45/47/45 44/46/44
f 25/26/10 26/27/12 46/48/46 45/47/45
f 26/27/12 27/28/14 47/49/47 46/48/46
f 27/28/14 28/29/16 48/50/48 47/49/47
f 28/29/16 29/30/18 49/51/49 48/50/48
f 29/30/18 30/31/20 50/52/50 49/51/49
f 30/31/20 31/32/22 51/53/51 50/52/50
f 31/32/22 32/33/24 52/54/52 51/53/51
f 32/33/24 33/34/26 53/55/53 52/54/52
f 33/34/26 34/35/28 54/56/54 53/55/53
f 34/35/28 35/36/30 55/57/55 54/56/54
f 35/36/30 36/37/32 56/58/56 55/57/55
f 36/37/32 37/38/34 57/59/57 56/58/56
f 37/38/34 38/39/36 58/60/58 57/59/57
f 38/39/36 39/40/38 59/61/59 58/60/58
f 39/40/38 40/41/40 60/62/60 59/61/59
f 40/41/40 21/42/4 41/63/42 60/62/60
f 41/43/42 42/44/41 62/65/61 61/64/62
f 42/44/41 43/45/43 63/66/63 62/65/61
f 43/45/43 44/46/44 64/67/64 63/66/63
f 44/46/44 45/47/45 65/68/65 64/67/64
f 45/47/45 46/48/46 66/69/66 65/68/65
f 46/48/46 47/49/47 67/70/67 66/69/66
f 47/49/47 48/50/48 68/71/68 67/70/67
f 48/50/48 49/51/49 69/72/69 68/71/68
f 49/51/49 50/52/50 70/73/70 69/72/69
f 50/52/50 51/53/51 71/74/71 70/73/70
f 51/53/51 52/54/52 72/75/72 71/74/71
f 52/54/52 53/55/53 73/76/73 72/75/72
f 53/55/53 54/56/54 74/77/74 73/76/73
f 54/56/54 55/57/55 75/78/75 74/77/74
f 55/57/55 56/58/56 76/79/76 75/78/75
f 56/58/56 57/59/57 77/80/77 76/79/76
f 57/59/57 58/60/58 78/81/78 77/80/77
f 58/60/58 59/61/59 79/82/79 78/81/78
f 59/61/59 60/62/60 80/83/80 79/82/79
f 60/62/60 41/63/42 61/84/62 80/83/80
f 61/64/62 62/65/61 82/86/81 81/85/82
f 62/65/61 63/66/63 83/87/83 82/86/81
f 63/66/63 64/67/64 84/88/84 83/87/83
f 64/67/64 65/68/65 85/89/85 84/88/84
f 65/68/65 66/69/66 86/90/86 85/89/85
f 66/69/66 67/70/67 87/91/87 86/90/86
f 67/70/67 68/71/68 88/92/88 87/91/87
f 68/71/68 69/72/69 89/93/89 88/92/88
f 69/72/69 70/73/70 90/94/90 89/93/89
f 70/73/70 71/74/71 91/95/91 90/94/90
f 71/74/71 72/75/72 92/96/92 91/95/91
f 72/75/72 73/76/73 93/97/93 92/96/92
f 73/76/73 74/77/74 94/98/94 93/97/93
f 74/77/74 75/78/75 95/99/95 94/98/94
f 75/78/75 76/79/76 96/100/96 95/99/95
f 76/79/76 77/80/77 97/101/97 96/100/96
f 77/80/77 78/81/78 98/102/98 97/101/97
f 78/81/78 79/82/79 99/103/99 98/102/98
f 79/82/79 80/83/80 100/104/100 99/103/99
f 80/83/80 61/84/62 81/105/82 100/104/100
