# This file uses centimeters as units for non-parametric coordinates.

mtllib Plateforme.mtl
g default
v -4.848029 -5.580493 1.608957
v 4.848029 -5.580493 1.608957
v -4.848029 1.608957 1.608957
v 4.848029 1.608957 1.608957
v -4.848029 1.608957 -1.608957
v 4.848029 1.608957 -1.608957
v -4.848029 -5.580493 -1.608957
v 4.848029 -5.580493 -1.608957
vt 0.333381 0.499993
vt 0.666691 0.500007
vt 0.666619 0.845404
vt 0.333309 0.845389
vt 0.999928 0.845419
vt 0.333485 0.000000
vt 1.000000 0.500022
vt 0.333413 0.345397
vt 0.666723 0.345412
vt 0.000072 0.499978
vt 0.666587 1.000000
vt 0.666795 0.000015
vt 0.333277 0.999985
vt 0.000000 0.845374
vn 0.000000 0.000000 1.000000
vn 0.000000 0.000000 1.000000
vn 0.000000 0.000000 1.000000
vn 0.000000 0.000000 1.000000
vn 0.000000 1.000000 0.000000
vn 0.000000 1.000000 0.000000
vn 0.000000 1.000000 0.000000
vn 0.000000 1.000000 0.000000
vn 0.000000 0.000000 -1.000000
vn 0.000000 0.000000 -1.000000
vn 0.000000 0.000000 -1.000000
vn 0.000000 0.000000 -1.000000
vn 0.000000 -1.000000 0.000000
vn 0.000000 -1.000000 0.000000
vn 0.000000 -1.000000 0.000000
vn 0.000000 -1.000000 0.000000
vn 1.000000 0.000000 0.000000
vn 1.000000 0.000000 0.000000
vn 1.000000 0.000000 0.000000
vn 1.000000 0.000000 0.000000
vn -1.000000 0.000000 0.000000
vn -1.000000 0.000000 0.000000
vn -1.000000 0.000000 0.000000
vn -1.000000 0.000000 0.000000
s off
g pCube2
usemtl initialShadingGroup
f 1/1/1 2/2/2 4/3/3 3/4/4
f 3/4/5 4/3/6 6/11/7 5/13/8
f 5/6/9 6/12/10 8/9/11 7/8/12
f 7/8/13 8/9/14 2/2/15 1/1/16
f 2/2/17 8/7/18 6/5/19 4/3/20
f 7/10/21 1/1/22 3/4/23 5/14/24
